<?xml version="1.0" standalone="no"?>
<!DOCTYPE svg PUBLIC "-//W3C//DTD SVG 20010904//EN"
 "http://www.w3.org/TR/2001/REC-SVG-20010904/DTD/svg10.dtd">
<svg version="1.0" xmlns="http://www.w3.org/2000/svg"
 width="1500.000000pt" height="1500.000000pt" viewBox="0 0 1500.000000 1500.000000"
 preserveAspectRatio="xMidYMid meet">
<metadata>
Created by potrace 1.14, written by Peter Selinger 2001-2017
</metadata>
<g transform="translate(0.000000,1500.000000) scale(0.100000,-0.100000)"
fill="#000000" stroke="none">
<path d="M7036 10543 c-1 -1 -24 -4 -51 -7 -96 -9 -160 -19 -176 -27 -9 -5
-31 -11 -49 -14 -64 -11 -58 -20 16 -21 63 -2 81 -6 113 -28 46 -32 55 -32
128 -2 65 26 121 45 154 51 33 7 47 24 29 35 -8 5 -22 10 -30 11 -39 2 -132 4
-134 2z"/>
<path d="M7530 10441 c-21 -7 -22 -9 -8 -15 22 -10 68 -4 71 9 3 13 -31 16
-63 6z"/>
<path d="M5840 8435 c0 -9 -8 -32 -19 -53 -10 -20 -16 -43 -14 -49 3 -7 0 -13
-5 -13 -5 0 -8 -12 -8 -27 1 -16 -6 -45 -16 -65 -21 -44 -22 -52 -6 -42 8 5 9
2 5 -10 -4 -9 -3 -15 2 -12 5 3 12 -6 15 -19 4 -14 10 -24 14 -21 4 3 14 1 22
-4 12 -7 12 -11 0 -25 -9 -11 -9 -15 -2 -13 12 3 35 -29 48 -64 3 -10 12 -18
19 -18 7 0 12 8 11 18 -1 13 7 17 29 17 28 0 34 -7 102 -139 40 -77 92 -171
115 -210 24 -39 45 -75 47 -81 11 -25 144 -235 239 -375 214 -317 466 -627
782 -965 278 -297 782 -757 1053 -959 64 -49 40 -21 -35 40 -600 484 -1210
1104 -1579 1604 -58 78 -238 346 -279 415 -13 22 -28 42 -32 43 -4 2 -8 7 -8
12 0 5 -23 48 -51 97 -61 106 -169 318 -217 428 -34 78 -67 168 -138 370 -32
90 -60 135 -85 135 -5 0 -9 -7 -9 -15z m-25 -235 c3 -5 2 -10 -4 -10 -5 0 -13
5 -16 10 -3 6 -2 10 4 10 5 0 13 -4 16 -10z m5 -40 c0 -5 -4 -10 -10 -10 -5 0
-10 5 -10 10 0 6 5 10 10 10 6 0 10 -4 10 -10z"/>
<path d="M5900 7957 c0 -7 6 -21 13 -32 13 -16 14 -15 9 13 -4 31 -22 46 -22
19z"/>
<path d="M5925 7890 c3 -5 8 -10 11 -10 2 0 4 5 4 10 0 6 -5 10 -11 10 -5 0
-7 -4 -4 -10z"/>
<path d="M7495 7691 c-180 -234 -307 -384 -533 -633 -82 -91 -127 -148 -117
-148 9 0 25 -10 36 -22 10 -13 18 -17 19 -10 0 6 7 12 15 12 31 0 266 259 487
535 53 67 103 127 112 134 14 12 16 10 16 -13 0 -16 30 -76 72 -144 61 -99
126 -219 174 -323 6 -13 31 -62 55 -109 23 -47 48 -98 55 -115 6 -16 24 -59
39 -95 14 -36 36 -94 47 -130 11 -36 26 -78 33 -95 17 -39 79 -254 106 -370
13 -54 21 -124 21 -175 0 -82 0 -83 13 -47 7 20 30 58 51 83 85 101 95 118 88
144 -3 14 -7 34 -8 45 -2 11 -8 29 -13 40 -6 11 -14 36 -17 55 -3 19 -12 49
-20 65 -20 41 -40 88 -41 100 -1 6 -9 27 -18 49 -9 21 -17 41 -17 44 0 3 -14
35 -31 71 -18 36 -39 84 -49 106 -18 43 -76 168 -93 200 -6 11 -27 52 -47 90
-20 39 -74 142 -119 230 -46 88 -91 171 -100 185 -10 14 -40 69 -67 124 -27
54 -59 109 -71 122 -12 13 -23 31 -25 41 -3 13 -17 1 -53 -46z"/>
<path d="M8392 6056 c-77 -89 -178 -188 -164 -161 6 11 20 29 32 40 26 24 69
82 53 72 -18 -11 -25 10 -12 34 16 31 -3 17 -59 -43 -26 -28 -62 -67 -81 -87
-18 -20 -44 -57 -57 -84 l-24 -47 39 27 c22 16 40 34 41 41 0 6 4 12 9 12 5 0
7 -9 4 -20 -3 -11 -8 -20 -12 -20 -14 0 -105 -87 -127 -122 -26 -40 -30 -53
-15 -43 5 3 11 -4 13 -16 2 -18 20 -3 98 85 52 59 97 113 99 119 2 7 10 15 17
20 12 7 190 226 208 255 15 25 -1 10 -62 -62z"/>
<path d="M5460 5728 c-684 -488 -1390 -841 -1990 -993 -159 -40 -266 -60 -445
-80 -147 -17 -163 -21 -188 -43 -16 -15 -16 -17 5 -40 21 -23 133 -102 144
-102 3 0 17 -14 32 -31 23 -29 27 -30 33 -13 7 18 8 18 8 1 1 -11 5 -15 13
-11 8 5 9 0 6 -14 -4 -12 -3 -22 2 -22 10 0 20 26 20 52 0 13 5 18 13 15 8 -3
14 1 14 8 0 7 -6 11 -14 8 -10 -4 -11 0 -4 20 5 14 8 27 5 29 -7 8 70 3 82 -5
6 -3 19 4 29 16 12 17 29 24 58 26 60 3 72 21 15 21 -55 0 -77 19 -50 43 9 9
76 34 147 57 493 156 827 295 1195 497 254 139 371 210 605 366 226 151 376
260 353 257 -2 -1 -41 -28 -88 -62z m-2380 -1273 c11 -13 10 -14 -4 -9 -9 3
-16 10 -16 15 0 13 6 11 20 -6z"/>
<path d="M2238 5527 c-5 -10 -8 -40 -7 -65 l1 -47 9 34 c12 40 9 107 -3 78z"/>
<path d="M2345 5359 c-4 -18 -3 -35 3 -41 15 -15 45 -1 38 18 -3 9 -6 24 -6
35 0 31 -28 22 -35 -12z"/>
<path d="M8601 5050 c21 -38 176 -170 199 -170 6 0 9 -4 6 -8 -3 -5 20 -24 51
-43 30 -19 70 -46 87 -61 17 -14 62 -52 99 -84 49 -41 65 -59 56 -65 -10 -6
-9 -10 6 -16 11 -4 58 -33 105 -63 47 -31 192 -116 322 -190 131 -74 238 -137
238 -140 0 -3 -16 -6 -35 -7 -34 -2 -55 -14 -174 -97 -41 -29 -223 -124 -251
-130 -3 -1 -16 -8 -30 -16 -14 -8 -34 -16 -45 -17 -11 -2 -37 -12 -58 -23 -21
-11 -46 -20 -56 -20 -10 0 -38 -7 -62 -15 -24 -9 -60 -18 -79 -21 -42 -6 -199
-40 -255 -55 -22 -6 -49 -20 -59 -31 -19 -20 -19 -20 3 -13 21 6 91 -26 133
-62 21 -18 89 -34 103 -25 5 5 28 14 50 21 22 7 49 16 60 20 107 44 155 63
167 65 7 1 23 8 36 15 13 7 32 14 42 16 11 2 41 14 67 26 26 12 50 23 53 23 3
1 16 9 30 18 14 9 43 25 65 35 22 10 42 20 45 23 3 3 19 12 35 20 17 8 54 30
84 48 29 19 58 35 65 36 6 1 26 13 44 26 19 14 37 25 40 26 11 1 45 15 64 25
22 11 96 31 126 33 12 0 22 5 22 10 0 4 10 6 23 3 22 -6 22 -6 -2 12 -22 17
-235 137 -376 212 -33 17 -100 57 -150 87 -49 30 -121 74 -160 97 -181 109
-498 320 -727 485 -20 14 -20 14 -7 -10z"/>
<path d="M3485 4571 c-3 -6 10 -7 32 -4 50 8 55 13 10 13 -20 0 -38 -4 -42 -9z"/>
<path d="M3360 4558 c0 -5 17 -6 38 -2 52 9 54 16 4 13 -23 -2 -42 -7 -42 -11z"/>
<path d="M3140 4421 c0 -12 5 -21 10 -21 6 0 10 6 10 14 0 8 -4 18 -10 21 -5
3 -10 -3 -10 -14z"/>
<path d="M3100 4348 c0 -4 7 -8 15 -8 8 0 15 4 15 8 0 5 -7 9 -15 9 -8 0 -15
-4 -15 -9z"/>
<path d="M8140 4005 c0 -2 10 -10 23 -16 20 -11 21 -11 8 4 -13 16 -31 23 -31
12z"/>
<path d="M8290 3910 c0 -12 79 -68 200 -142 123 -76 316 -179 280 -150 l-24
20 32 9 32 8 -80 50 c-104 65 -200 115 -222 115 -9 0 -62 22 -117 49 -56 27
-101 45 -101 41z"/>
<path d="M3942 3654 c10 -10 20 -16 22 -13 3 3 -5 11 -17 18 -21 13 -21 12 -5
-5z"/>
<path d="M4158 3533 c7 -3 16 -2 19 1 4 3 -2 6 -13 5 -11 0 -14 -3 -6 -6z"/>
</g>
</svg>
